<?xml version="1.0" standalone="no"?><!DOCTYPE svg PUBLIC "-//W3C//DTD SVG 1.1//EN" "http://www.w3.org/Graphics/SVG/1.1/DTD/svg11.dtd"><svg t="1596273258097" class="icon" viewBox="0 0 1024 1024" version="1.1" xmlns="http://www.w3.org/2000/svg" p-id="2007" xmlns:xlink="http://www.w3.org/1999/xlink" width="14" height="14"><defs><style type="text/css"></style></defs><path d="M938.646 886.273L765.574 713.198c53.666-63.987 86.076-146.4 86.076-236.446 0-203.406-164.896-368.298-368.302-368.298-203.41 0-368.302 164.893-368.302 368.298 0 203.41 164.893 368.302 368.302 368.302 89.247 0 171.056-31.767 234.8-84.579l173.148 173.149c1.577 1.577 8.155-2.444 14.695-8.98l23.676-23.675c6.538-6.54 10.556-13.119 8.979-14.696z m-455.299-108.18c-166.425 0-301.338-134.912-301.338-301.338s134.913-301.338 301.338-301.338S784.686 310.33 784.686 476.755 649.774 778.093 483.347 778.093z" fill="#515151" p-id="2008"></path></svg>