<?xml version="1.0" standalone="no"?><!DOCTYPE svg PUBLIC "-//W3C//DTD SVG 1.1//EN" "http://www.w3.org/Graphics/SVG/1.1/DTD/svg11.dtd"><svg t="1596268066524" class="icon" viewBox="0 0 1024 1024" version="1.1" xmlns="http://www.w3.org/2000/svg" p-id="7192" xmlns:xlink="http://www.w3.org/1999/xlink" width="14" height="14"><defs><style type="text/css"></style></defs><path d="M856.576 713.216l-345.088 156.16-361.984-156.672c-17.92-7.68-38.912 0.512-47.104 18.432-7.68 17.92 0.512 38.912 18.432 47.104l360.96 156.16c9.728 4.608 19.968 7.168 30.72 7.168 10.24 0 20.48-2.048 29.696-6.656l344.576-156.672c17.92-8.192 26.112-29.184 17.92-47.104-8.704-17.92-30.208-26.112-48.128-17.92zM917.504 266.24l-372.736-176.64c-20.48-9.728-45.056-9.728-65.536 0L106.496 266.24c-25.6 12.288-41.472 36.864-40.96 64 0.512 27.648 16.896 51.712 43.008 63.488L481.28 558.08c9.728 4.096 20.48 6.656 30.72 6.656 10.752 0 20.992-2.048 31.232-6.656l372.736-164.352c26.112-11.264 42.496-35.84 43.008-63.488 0-27.136-15.872-51.712-41.472-64z m-402.944 226.816c-1.536 0.512-3.072 0.512-4.096 0L139.776 329.728l370.176-175.616c1.536-0.512 3.072-0.512 4.608 0l369.664 175.616-369.664 163.328z" p-id="7193" fill="#FF9C2E"></path><path d="M474.624 750.08c11.776 5.632 24.576 8.704 37.376 8.704s25.6-3.072 37.376-8.704l302.08-129.536c12.8-5.632 20.992-17.92 20.992-31.232v-73.728L512 671.744l-359.424-156.16v73.728c0 13.824 8.192 26.112 20.992 31.232l301.056 129.536z" p-id="7194" fill="#FF9C2E"></path></svg>